<mxfile host="app.diagrams.net" modified="2020-11-06T06:47:08.841Z" agent="5.0 (Macintosh; Intel Mac OS X 10_15_7) AppleWebKit/537.36 (KHTML, like Gecko) Chrome/86.0.4240.183 Safari/537.36" etag="L0U75O3CQ7f_oYQwA7J-" version="13.9.2" type="github">
  <diagram id="vHxfbZjSgk5aV1Nw27GU" name="Page-1">
    <mxGraphModel dx="1426" dy="803" grid="1" gridSize="10" guides="1" tooltips="1" connect="1" arrows="1" fold="1" page="0" pageScale="1" pageWidth="827" pageHeight="1169" math="0" shadow="0">
      <root>
        <mxCell id="0" />
        <mxCell id="1" parent="0" />
        <mxCell id="WLkJua1B8SE8AZB6Qazk-25" style="edgeStyle=orthogonalEdgeStyle;rounded=0;orthogonalLoop=1;jettySize=auto;html=1;exitX=0.5;exitY=1;exitDx=0;exitDy=0;entryX=0.5;entryY=0;entryDx=0;entryDy=0;" parent="1" source="WLkJua1B8SE8AZB6Qazk-13" target="WLkJua1B8SE8AZB6Qazk-20" edge="1">
          <mxGeometry relative="1" as="geometry" />
        </mxCell>
        <mxCell id="WLkJua1B8SE8AZB6Qazk-27" style="edgeStyle=orthogonalEdgeStyle;rounded=0;orthogonalLoop=1;jettySize=auto;html=1;exitX=0.5;exitY=1;exitDx=0;exitDy=0;" parent="1" source="WLkJua1B8SE8AZB6Qazk-13" target="WLkJua1B8SE8AZB6Qazk-18" edge="1">
          <mxGeometry relative="1" as="geometry" />
        </mxCell>
        <mxCell id="WLkJua1B8SE8AZB6Qazk-13" value="服务" style="rounded=0;whiteSpace=wrap;html=1;" parent="1" vertex="1">
          <mxGeometry x="120" y="120" width="80" height="40" as="geometry" />
        </mxCell>
        <mxCell id="WLkJua1B8SE8AZB6Qazk-15" value="教师端" style="rounded=0;whiteSpace=wrap;html=1;" parent="1" vertex="1">
          <mxGeometry x="120" y="40" width="80" height="40" as="geometry" />
        </mxCell>
        <mxCell id="WLkJua1B8SE8AZB6Qazk-17" value="" style="endArrow=classic;html=1;" parent="1" edge="1">
          <mxGeometry width="50" height="50" relative="1" as="geometry">
            <mxPoint x="159.5" y="80" as="sourcePoint" />
            <mxPoint x="159.5" y="120" as="targetPoint" />
          </mxGeometry>
        </mxCell>
        <mxCell id="WLkJua1B8SE8AZB6Qazk-37" style="edgeStyle=orthogonalEdgeStyle;rounded=0;orthogonalLoop=1;jettySize=auto;html=1;exitX=0.5;exitY=1;exitDx=0;exitDy=0;entryX=0.5;entryY=0;entryDx=0;entryDy=0;" parent="1" source="WLkJua1B8SE8AZB6Qazk-18" target="WLkJua1B8SE8AZB6Qazk-35" edge="1">
          <mxGeometry relative="1" as="geometry" />
        </mxCell>
        <mxCell id="WLkJua1B8SE8AZB6Qazk-18" value="成功" style="rounded=0;whiteSpace=wrap;html=1;" parent="1" vertex="1">
          <mxGeometry x="40" y="200" width="80" height="40" as="geometry" />
        </mxCell>
        <mxCell id="WLkJua1B8SE8AZB6Qazk-29" style="edgeStyle=orthogonalEdgeStyle;rounded=0;orthogonalLoop=1;jettySize=auto;html=1;exitX=1;exitY=0.5;exitDx=0;exitDy=0;" parent="1" source="WLkJua1B8SE8AZB6Qazk-20" target="WLkJua1B8SE8AZB6Qazk-30" edge="1">
          <mxGeometry relative="1" as="geometry">
            <mxPoint x="360" y="220" as="targetPoint" />
          </mxGeometry>
        </mxCell>
        <mxCell id="WLkJua1B8SE8AZB6Qazk-20" value="失败" style="rounded=0;whiteSpace=wrap;html=1;" parent="1" vertex="1">
          <mxGeometry x="200" y="200" width="80" height="40" as="geometry" />
        </mxCell>
        <mxCell id="WLkJua1B8SE8AZB6Qazk-30" value="显示发送请求&lt;br&gt;超时" style="rounded=0;whiteSpace=wrap;html=1;" parent="1" vertex="1">
          <mxGeometry x="320" y="200" width="80" height="40" as="geometry" />
        </mxCell>
        <mxCell id="WLkJua1B8SE8AZB6Qazk-32" value="请求" style="text;html=1;align=center;verticalAlign=middle;resizable=0;points=[];autosize=1;" parent="1" vertex="1">
          <mxGeometry x="150" y="90" width="40" height="20" as="geometry" />
        </mxCell>
        <mxCell id="WLkJua1B8SE8AZB6Qazk-34" value="5s" style="text;html=1;align=center;verticalAlign=middle;resizable=0;points=[];autosize=1;" parent="1" vertex="1">
          <mxGeometry x="195" y="180" width="30" height="20" as="geometry" />
        </mxCell>
        <mxCell id="WLkJua1B8SE8AZB6Qazk-38" style="edgeStyle=orthogonalEdgeStyle;rounded=0;orthogonalLoop=1;jettySize=auto;html=1;exitX=0.5;exitY=1;exitDx=0;exitDy=0;" parent="1" source="WLkJua1B8SE8AZB6Qazk-35" target="WLkJua1B8SE8AZB6Qazk-36" edge="1">
          <mxGeometry relative="1" as="geometry" />
        </mxCell>
        <mxCell id="WLkJua1B8SE8AZB6Qazk-42" style="edgeStyle=orthogonalEdgeStyle;rounded=0;orthogonalLoop=1;jettySize=auto;html=1;" parent="1" source="WLkJua1B8SE8AZB6Qazk-35" target="WLkJua1B8SE8AZB6Qazk-39" edge="1">
          <mxGeometry relative="1" as="geometry" />
        </mxCell>
        <mxCell id="WLkJua1B8SE8AZB6Qazk-35" value="创建定时任务等待RC返回" style="rounded=0;whiteSpace=wrap;html=1;" parent="1" vertex="1">
          <mxGeometry x="40" y="280" width="80" height="40" as="geometry" />
        </mxCell>
        <mxCell id="WLkJua1B8SE8AZB6Qazk-46" style="edgeStyle=orthogonalEdgeStyle;rounded=0;orthogonalLoop=1;jettySize=auto;html=1;entryX=0.5;entryY=0;entryDx=0;entryDy=0;" parent="1" source="WLkJua1B8SE8AZB6Qazk-36" target="WLkJua1B8SE8AZB6Qazk-43" edge="1">
          <mxGeometry relative="1" as="geometry" />
        </mxCell>
        <mxCell id="WLkJua1B8SE8AZB6Qazk-36" value="等到消息" style="rounded=0;whiteSpace=wrap;html=1;" parent="1" vertex="1">
          <mxGeometry x="40" y="360" width="80" height="40" as="geometry" />
        </mxCell>
        <mxCell id="4_X2Vnvy_WwgIoR1oWX3-7" value="" style="edgeStyle=orthogonalEdgeStyle;rounded=0;orthogonalLoop=1;jettySize=auto;html=1;" edge="1" parent="1" source="WLkJua1B8SE8AZB6Qazk-39" target="4_X2Vnvy_WwgIoR1oWX3-5">
          <mxGeometry relative="1" as="geometry" />
        </mxCell>
        <mxCell id="WLkJua1B8SE8AZB6Qazk-39" value="未收到消息" style="rounded=0;whiteSpace=wrap;html=1;" parent="1" vertex="1">
          <mxGeometry x="160" y="360" width="80" height="40" as="geometry" />
        </mxCell>
        <mxCell id="WLkJua1B8SE8AZB6Qazk-47" style="edgeStyle=orthogonalEdgeStyle;rounded=0;orthogonalLoop=1;jettySize=auto;html=1;entryX=0.5;entryY=0;entryDx=0;entryDy=0;" parent="1" source="WLkJua1B8SE8AZB6Qazk-43" target="WLkJua1B8SE8AZB6Qazk-44" edge="1">
          <mxGeometry relative="1" as="geometry" />
        </mxCell>
        <mxCell id="WLkJua1B8SE8AZB6Qazk-43" value="根据发出来的索引清理定时任务" style="rounded=0;whiteSpace=wrap;html=1;" parent="1" vertex="1">
          <mxGeometry x="40" y="440" width="80" height="40" as="geometry" />
        </mxCell>
        <mxCell id="4_X2Vnvy_WwgIoR1oWX3-2" style="edgeStyle=orthogonalEdgeStyle;rounded=0;orthogonalLoop=1;jettySize=auto;html=1;entryX=0.5;entryY=0;entryDx=0;entryDy=0;" edge="1" parent="1" source="WLkJua1B8SE8AZB6Qazk-44" target="4_X2Vnvy_WwgIoR1oWX3-1">
          <mxGeometry relative="1" as="geometry" />
        </mxCell>
        <mxCell id="WLkJua1B8SE8AZB6Qazk-44" value="将数据传递外层" style="rounded=0;whiteSpace=wrap;html=1;" parent="1" vertex="1">
          <mxGeometry x="40" y="520" width="80" height="40" as="geometry" />
        </mxCell>
        <mxCell id="WLkJua1B8SE8AZB6Qazk-45" value="5s内" style="text;html=1;align=center;verticalAlign=middle;resizable=0;points=[];autosize=1;" parent="1" vertex="1">
          <mxGeometry x="90" y="320" width="40" height="20" as="geometry" />
        </mxCell>
        <mxCell id="4_X2Vnvy_WwgIoR1oWX3-4" value="" style="edgeStyle=orthogonalEdgeStyle;rounded=0;orthogonalLoop=1;jettySize=auto;html=1;" edge="1" parent="1" source="4_X2Vnvy_WwgIoR1oWX3-1" target="4_X2Vnvy_WwgIoR1oWX3-3">
          <mxGeometry relative="1" as="geometry" />
        </mxCell>
        <mxCell id="4_X2Vnvy_WwgIoR1oWX3-1" value="根据消息类型处理按钮可用" style="rounded=0;whiteSpace=wrap;html=1;" vertex="1" parent="1">
          <mxGeometry x="40" y="600" width="80" height="40" as="geometry" />
        </mxCell>
        <mxCell id="4_X2Vnvy_WwgIoR1oWX3-3" value="弹出消息" style="rounded=0;whiteSpace=wrap;html=1;" vertex="1" parent="1">
          <mxGeometry x="40" y="680" width="80" height="40" as="geometry" />
        </mxCell>
        <mxCell id="4_X2Vnvy_WwgIoR1oWX3-5" value="弹出客户端响应超时" style="rounded=0;whiteSpace=wrap;html=1;" vertex="1" parent="1">
          <mxGeometry x="160" y="440" width="80" height="40" as="geometry" />
        </mxCell>
      </root>
    </mxGraphModel>
  </diagram>
</mxfile>
